<?xml version="1.0" encoding="UTF-8"?>
<svg version="1.1" xmlns="http://www.w3.org/2000/svg" width="2000" height="2100">
<path d="M0 0 C1.83681983 -0.00239594 3.67363869 -0.00566502 5.51045561 -0.0097166 C10.52672212 -0.0182766 15.54291309 -0.01453531 20.55918063 -0.00866088 C26.02852313 -0.00447008 31.49785236 -0.01190409 36.96719158 -0.01781338 C46.54287562 -0.02655853 56.11853827 -0.0278935 65.69422531 -0.02431011 C79.93409593 -0.01899542 94.17394591 -0.02510614 108.41381429 -0.03339304 C134.58856622 -0.04842622 160.76330983 -0.05048377 186.93806522 -0.04807267 C190.6434243 -0.0477342 194.34878339 -0.0474121 198.05414248 -0.04710698 C198.79018242 -0.04704594 199.52622237 -0.04698489 200.28456656 -0.046922 C216.61597845 -0.04564863 232.94738904 -0.04825418 249.27880054 -0.05163305 C253.01091387 -0.0524038 256.7430272 -0.05314854 260.47514053 -0.05389806 C261.97306224 -0.05419976 263.47098394 -0.05450164 264.96890564 -0.05480371 C265.71141451 -0.05495338 266.45392339 -0.05510306 267.21893253 -0.05525728 C268.72086288 -0.05556081 270.22279324 -0.0558655 271.72472359 -0.05617132 C314.32746885 -0.0648414 356.93021295 -0.06949041 399.53295898 -0.06522369 C400.32141027 -0.06514564 401.10986155 -0.06506758 401.9222053 -0.06498716 C410.71371233 -0.06411441 419.50521934 -0.06318514 428.29672636 -0.06223653 C429.09042703 -0.06215102 429.8841277 -0.06206551 430.7018799 -0.06197741 C437.29575294 -0.06126673 437.29575294 -0.06126673 440.33120775 -0.06093518 C491.09059827 -0.05540032 541.8499706 -0.06294015 592.60935783 -0.08170605 C605.398838 -0.08642852 618.18831819 -0.09110915 630.97779846 -0.09554291 C631.76536984 -0.09581623 632.55294121 -0.09608955 633.36437839 -0.09637116 C657.65044942 -0.1047467 681.93651894 -0.10942252 706.2225914 -0.11025047 C706.98543148 -0.11027684 707.74827157 -0.11030321 708.53422802 -0.11033037 C725.28295186 -0.11087124 742.03167559 -0.11049851 758.7803994 -0.10929066 C764.77382618 -0.10886506 770.76725295 -0.10849993 776.76067974 -0.10816122 C778.25160112 -0.10807591 779.74252251 -0.10798698 781.23344389 -0.1078944 C804.95518603 -0.10644774 828.67691576 -0.11355817 852.39865492 -0.12489836 C876.96575083 -0.13656661 901.53282468 -0.13709217 926.0999207 -0.12505493 C940.25220117 -0.11843123 954.40442345 -0.12004618 968.55669925 -0.13364345 C978.02020858 -0.14190093 987.48367444 -0.13917351 996.94718026 -0.12766818 C1002.33233458 -0.12142469 1007.71737555 -0.11977744 1013.10252322 -0.13153151 C1054.62462401 -0.21589406 1094.51116699 3.08972832 1132.1572094 22.25447559 C1132.89149162 22.61911915 1133.62577385 22.9837627 1134.38230705 23.35945606 C1150.302299 31.27822562 1164.69342604 40.60271942 1178.1572094 52.25447559 C1178.94998283 52.93638966 1179.74275627 53.61830372 1180.55955315 54.32088184 C1192.64705513 64.95866722 1203.64448811 76.2552593 1213.1572094 89.25447559 C1214.30963127 90.82455372 1214.30963127 90.82455372 1215.4853344 92.42635059 C1239.25773226 125.84070004 1256.4119202 167.92278433 1256.2848599 209.43865174 C1256.28733606 210.60386121 1256.28733606 210.60386121 1256.28986226 211.79261027 C1256.29416372 214.38618056 1256.29139337 216.97969341 1256.28863716 219.57326508 C1256.29028791 221.46330061 1256.29237469 223.35333581 1256.29485726 225.24337044 C1256.30041941 230.44931994 1256.29975232 235.65525296 1256.29807967 240.86120447 C1256.29734847 246.52051018 1256.30237178 252.17981124 1256.30665469 257.83911496 C1256.31423539 269.06928195 1256.31642779 280.29944418 1256.31698375 291.52961345 C1256.31761819 300.86973935 1256.32058645 310.20986226 1256.32519722 319.54998684 C1256.32552735 320.22262907 1256.32585749 320.8952713 1256.32619762 321.58829662 C1256.32754764 324.32791763 1256.32891031 327.06753863 1256.33028973 329.80715962 C1256.34658811 362.23463515 1256.35297799 394.66210996 1256.3577376 427.0895889 C1256.36012147 443.24005236 1256.36382509 459.39051541 1256.3677747 475.54097856 C1256.3804394 527.35810777 1256.39122281 579.17523697 1256.39461515 630.99236771 C1256.39477739 633.46874369 1256.39494295 635.94511967 1256.39510954 638.42149564 C1256.39544334 643.38783157 1256.39577382 648.35416749 1256.3961041 653.32050341 C1256.39649099 659.13476341 1256.3968806 664.9490234 1256.39727516 670.76328339 C1256.39738758 672.42736623 1256.397499 674.09144907 1256.39760942 675.75553191 C1256.40115793 729.18631292 1256.41623241 782.61708046 1256.43954716 836.04785633 C1256.45629441 874.44334755 1256.47176623 912.83883622 1256.47628212 951.23433113 C1256.47642235 952.41939229 1256.47642235 952.41939229 1256.47656541 953.62839408 C1256.47858471 970.97402134 1256.47974055 988.31964857 1256.480094 1005.66527595 C1256.48023016 1011.87240018 1256.48043915 1018.07952441 1256.48068725 1024.28664864 C1256.48074881 1025.8307845 1256.48080713 1027.37492036 1256.4808622 1028.91905622 C1256.4817811 1053.49963299 1256.49173835 1078.0801957 1256.50631968 1102.66076784 C1256.52095381 1127.42952831 1256.52596631 1152.19827154 1256.51790014 1176.96703556 C1256.51678487 1180.39494053 1256.51577418 1183.82284552 1256.51482582 1187.25075054 C1256.51463585 1187.9226712 1256.51444589 1188.59459186 1256.51425016 1189.28687374 C1256.51135838 1200.54052159 1256.52031276 1211.79414117 1256.53246523 1223.04778274 C1256.5422248 1232.85437403 1256.54102761 1242.66092501 1256.531029 1252.46751595 C1256.52564408 1258.0504233 1256.52490401 1263.6332201 1256.53753772 1269.21611824 C1256.54896283 1274.30761153 1256.54625874 1279.39890539 1256.53287065 1284.49039212 C1256.53045996 1286.30878062 1256.53293682 1288.12718494 1256.54126713 1289.94555596 C1256.61549986 1307.30830787 1254.85444716 1324.61735686 1250.4072094 1341.44197559 C1250.01879875 1342.93773121 1250.01879875 1342.93773121 1249.62254143 1344.46370411 C1236.80553036 1392.41832502 1208.55085436 1428.20562699 1174.08745644 1462.58116366 C1171.20138767 1465.46211249 1168.32117644 1468.34890832 1165.44017941 1471.23492736 C1160.40087057 1476.2814285 1155.35789188 1481.32423834 1150.31242752 1486.36458492 C1142.80959559 1493.85982727 1135.31251984 1501.36080783 1127.81653345 1508.86289561 C1114.4265252 1522.26341751 1101.03082104 1535.65823393 1087.63266365 1549.05060758 C1075.90942862 1560.76880685 1064.18805993 1572.48886896 1052.46853638 1584.21078014 C1051.69044439 1584.9890249 1050.9123524 1585.76726966 1050.11068186 1586.5690976 C1046.95200138 1589.72840078 1043.79332795 1592.88771101 1040.63466613 1596.04703285 C1011.02152776 1625.66628537 981.40256671 1655.27970914 951.7809864 1684.89051879 C925.47156034 1711.19045126 899.16731313 1737.49555291 872.86741447 1763.8050127 C843.30539943 1793.37773893 813.74015344 1822.94722884 784.16969258 1852.51151007 C781.01714425 1855.66341698 777.86460379 1858.81533176 774.71206665 1861.96724987 C773.54774556 1863.13133373 773.54774556 1863.13133373 772.35990282 1864.31893444 C760.64414496 1876.03241843 748.93085469 1887.74836612 737.21876144 1899.46551418 C723.90244967 1912.78754453 710.58256911 1926.10599506 697.25797372 1939.41974042 C689.80298195 1946.8688617 682.35074319 1954.3207121 674.90246257 1961.77654392 C669.92507166 1966.75842388 664.94404419 1971.73664816 659.96006247 1976.71193448 C657.12197144 1979.54527509 654.28545502 1982.38014288 651.45334547 1985.21946345 C648.87197235 1987.80734191 646.28596436 1990.3904964 643.69633518 1992.97011242 C642.33778695 1994.32572714 640.98408558 1995.68619407 639.63064644 1997.04690972 C633.77936496 2002.8628358 627.61512221 2008.12482666 621.1572094 2013.25447559 C620.06183957 2014.14731508 618.96672671 2015.04047009 617.87205315 2015.93416309 C609.11414168 2022.85673165 599.81113747 2028.6641073 590.1572094 2034.25447559 C589.51525627 2034.62846485 588.87330315 2035.00245411 588.2118969 2035.38777637 C555.1349025 2054.45103352 517.19262036 2062.43085962 479.31582165 2062.38590336 C477.61165739 2062.3875553 475.9074935 2062.38964263 474.20333025 2062.39212346 C469.52276933 2062.39767017 464.84222678 2062.39702136 460.16166364 2062.39534587 C455.06838218 2062.39461315 449.97510584 2062.39964153 444.88182658 2062.40392089 C434.78088649 2062.41149275 424.67995168 2062.41369354 414.57900905 2062.41424994 C402.47937593 2062.41516439 390.37974769 2062.42183436 378.28011667 2062.42859677 C349.73014179 2062.44427005 321.18016816 2062.45034442 292.63019002 2062.4550038 C278.09896077 2062.45738862 263.56773198 2062.46109243 249.03650308 2062.46504089 C202.40341595 2062.47770482 155.77032883 2062.48848827 109.13724001 2062.49188135 C106.9091153 2062.49204359 104.6809906 2062.49220915 102.45286589 2062.49237574 C97.98447432 2062.49270953 93.51608274 2062.49304001 89.04769117 2062.49337029 C83.81651109 2062.49375719 78.58533102 2062.4941468 73.35415095 2062.49454136 C71.856956 2062.49465378 70.35976104 2062.4947652 68.86256609 2062.49487561 C20.79439694 2062.49842381 -27.27375725 2062.51349747 -75.34192069 2062.53681336 C-109.88861126 2062.55356375 -144.435299 2062.56903371 -178.98199368 2062.57354832 C-180.04856382 2062.57368855 -180.04856382 2062.57368855 -181.13668083 2062.57383161 C-196.74897889 2062.57585104 -212.36127691 2062.57700677 -227.97357509 2062.57736019 C-233.56061407 2062.57749636 -239.14765304 2062.57770535 -244.73469202 2062.57795345 C-246.12453867 2062.57801501 -247.51438532 2062.57807333 -248.90423197 2062.57812839 C-271.01614909 2062.57904678 -293.12805055 2062.58899772 -315.23996252 2062.60358588 C-338.14615092 2062.61863752 -361.05232094 2062.62277411 -383.95851477 2062.61449292 C-397.1531733 2062.61004317 -410.34776772 2062.61387113 -423.5424178 2062.62973143 C-432.36784861 2062.63950682 -441.19323468 2062.63827879 -450.01866512 2062.6282952 C-455.03950619 2062.62292163 -460.06022446 2062.62213312 -465.08105519 2062.63480392 C-535.35139905 2062.80076078 -594.43070242 2044.5134757 -645.1552906 1994.06697559 C-645.74221687 1993.48472218 -646.32914314 1992.90246876 -646.93385506 1992.3025713 C-684.75957287 1954.33641815 -706.03421434 1898.8982257 -705.97701168 1845.72675133 C-705.97896677 1844.1414923 -705.98135643 1842.55623376 -705.98413965 1840.97097597 C-705.99052323 1836.61122276 -705.99070259 1832.25148802 -705.98986224 1827.89173103 C-705.99003207 1823.14965634 -705.99594189 1818.4075882 -706.0011031 1813.66551679 C-706.0104223 1804.25831248 -706.01435001 1794.85111287 -706.01662207 1785.44390451 C-706.01958596 1774.1761035 -706.02828454 1762.90830872 -706.03703635 1751.64051098 C-706.05787536 1724.40371329 -706.06835016 1697.16691452 -706.07716596 1669.93011072 C-706.08137371 1657.04150192 -706.08659557 1644.15289359 -706.09185049 1631.26428519 C-706.1094609 1587.82568357 -706.12451227 1544.38708194 -706.13182072 1500.94847734 C-706.13240468 1497.48665686 -706.13300195 1494.02483638 -706.13359834 1490.5630159 C-706.13371646 1489.87631853 -706.13383458 1489.18962116 -706.13395628 1488.48211477 C-706.13515362 1481.52520843 -706.13636239 1474.56830208 -706.13758881 1467.61139574 C-706.13783405 1466.21654372 -706.1380779 1464.8216917 -706.13832038 1463.42683967 C-706.14610522 1418.65713735 -706.16847741 1373.88746129 -706.20099681 1329.11777044 C-706.22435871 1296.94443186 -706.24590204 1264.77109853 -706.25300312 1232.59775162 C-706.25315014 1231.93536117 -706.25329716 1231.27297073 -706.25344864 1230.59050785 C-706.25677724 1215.3927806 -706.25875851 1200.19505341 -706.25981492 1184.99732584 C-706.26023245 1179.79679707 -706.26071201 1174.59626831 -706.2612381 1169.39573956 C-706.26136129 1168.11524741 -706.26148448 1166.83475527 -706.26161141 1165.51546033 C-706.26394074 1144.9336405 -706.27958591 1124.35185152 -706.30007994 1103.77004268 C-706.32036597 1083.06812763 -706.32580213 1062.36624953 -706.31630931 1041.66432638 C-706.311105 1029.37656405 -706.31692117 1017.08892501 -706.33884398 1004.8011805 C-706.35240258 996.57764001 -706.35123059 988.3541839 -706.33844202 980.13064247 C-706.33157892 975.45514517 -706.33075944 970.77988268 -706.34800211 966.10440684 C-706.43233482 941.749794 -705.67358111 917.92009116 -698.5927906 894.37947559 C-698.2939698 893.35741016 -697.995149 892.33534473 -697.68727303 891.28230762 C-689.46809899 863.91345913 -675.74682984 839.94781529 -659.91519356 816.34145069 C-654.99254548 809.00058917 -650.14672421 801.60963481 -645.29649544 794.2208147 C-642.63535425 790.16878729 -639.96937486 786.11994606 -637.3037281 782.07088184 C-636.22395439 780.4304335 -635.14420178 778.78997126 -634.06447029 777.14949512 C-633.5310804 776.33909779 -632.99769051 775.52870045 -632.44813728 774.69374561 C-628.26429847 768.33654395 -624.08188517 761.97840425 -619.89924812 755.62041187 C-617.29716989 751.66505092 -614.6949742 747.70976723 -612.0927906 743.75447559 C-611.05112338 742.17114263 -610.00945671 740.5878093 -608.9677906 739.00447559 C-602.71779074 729.5044758 -602.71779074 729.5044758 -601.15526009 727.12942982 C-600.1136944 725.54624956 -599.07212946 723.96306882 -598.03056526 722.37988758 C-595.42485976 718.4192081 -592.81914124 714.45853718 -590.21339607 710.4978838 C-585.54424781 703.40089321 -580.87518605 696.30384581 -576.20662117 689.20647144 C-564.35518753 671.18937737 -552.49924704 653.17526381 -540.63734627 635.16505909 C-529.39758372 618.09925498 -518.16549483 601.02841061 -506.93556404 583.95613575 C-502.25987165 576.84799689 -497.58356133 569.74026455 -492.90730476 562.63249683 C-490.30244208 558.67317262 -487.69761829 554.71382283 -485.0927906 550.75447559 C-484.05112412 549.17114214 -483.00945746 547.5878088 -481.9677906 546.00447559 C-481.4521656 545.22072559 -480.9365406 544.43697559 -480.4052906 543.62947559 C-428.8427906 465.25447559 -377.2802906 386.87947559 -324.15526009 306.12942982 C-323.1136944 304.54624956 -322.07212946 302.96306882 -321.03056526 301.37988758 C-318.42485976 297.4192081 -315.81914124 293.45853718 -313.21339607 289.4978838 C-308.54424781 282.40089321 -303.87518605 275.30384581 -299.20662117 268.20647144 C-287.35518753 250.18937737 -275.49924704 232.17526381 -263.63734627 214.16505909 C-256.01164693 202.58663913 -248.38820951 191.00673609 -240.76860237 179.42430592 C-239.22301659 177.07491942 -237.67731924 174.72560635 -236.13160896 172.37630177 C-230.87009966 164.37898476 -225.61086583 156.38018036 -220.35450935 148.37947559 C-214.66085025 139.71372077 -208.95990993 131.05278722 -203.25343513 122.3954668 C-201.8890445 120.32467697 -200.52591826 118.25306033 -199.1631031 116.18123341 C-188.00893941 99.23241021 -176.9267518 82.94905151 -162.8427906 68.25447559 C-162.28994392 67.66908009 -161.73709724 67.08368458 -161.16749763 66.48054981 C-142.55298618 46.84252454 -120.404002 31.56779569 -95.8427906 20.25447559 C-94.73161873 19.73498341 -93.62044685 19.21549122 -92.4756031 18.68025684 C-78.38704074 12.36526595 -63.75409752 7.63824176 -48.6552906 4.44197559 C-47.74344002 4.24724659 -46.83158943 4.05251759 -45.89210701 3.8518877 C-30.65480738 0.81272492 -15.49082027 -0.0425956 0 0 Z " fill="#0074D9" transform="translate(724.8427906036377,18.745524406433105)"/>
<path d="M0 0 C91.41 0 182.82 0 277 0 C277.99 11.55 278.98 23.1 280 35 C280.37125 39.104375 280.7425 43.20875 281.125 47.4375 C281.80081894 55.11524632 282.31917957 62.77627718 282.57080078 70.48022461 C282.74444103 74.94178679 283.13426483 79.34942749 283.65486431 83.78454208 C284.9621525 94.92439976 285.85511048 106.08270449 286.69921875 117.265625 C286.85643884 119.31581004 287.01398475 121.36597012 287.17182922 123.41610718 C287.50652901 127.76924808 287.83956308 132.12251143 288.17114258 136.47589111 C289.04880388 147.99746285 289.93565415 159.51832715 290.82421875 171.0390625 C290.9141296 172.20592464 291.00404045 173.37278679 291.09667587 174.57500839 C292.37953616 191.20750851 293.7076454 207.83575676 295.08203125 224.4609375 C295.24712799 226.46223944 295.41222302 228.46354152 295.57731628 230.46484375 C296.2761044 238.92513425 296.97878196 247.38506301 297.69314861 255.84405327 C297.98187459 259.27484358 298.2663899 262.70597465 298.54994774 266.13719559 C298.68035841 267.70293183 298.81266317 269.26851182 298.94713783 270.83390427 C299.72671972 279.91294081 300.13019512 288.88227278 300 298 C309.405 297.505 309.405 297.505 319 297 C319.14099121 295.05005127 319.28198242 293.10010254 319.42724609 291.09106445 C319.90024876 284.55715241 320.37547781 278.02340507 320.8521328 271.48975849 C321.14028411 267.53891477 321.4276157 263.58801543 321.71289062 259.63696289 C322.04303939 255.06638245 322.37568156 250.49598994 322.7109375 245.92578125 C322.76608269 245.17371525 322.82122787 244.42164925 322.87804413 243.64679337 C323.55468355 234.46379223 324.32723585 225.29912006 325.26629448 216.13889027 C325.953487 209.12148787 326.38052604 202.09707818 326.78211117 195.05823135 C327.77253556 177.80204589 329.02711473 160.57073554 330.35814476 143.33797646 C330.59527804 140.26365718 330.83071409 137.18920871 331.06619883 134.11476278 C331.62197846 126.85903785 332.1804229 119.60352171 332.74072266 112.34814453 C333.31362906 104.92894286 333.88201963 97.50940473 334.44824839 90.08969069 C334.9409107 83.63596431 335.43628939 77.18245028 335.93380117 70.72909594 C336.22820096 66.91010115 336.52166999 63.09104157 336.81251526 59.27177429 C337.08521168 55.69245604 337.36135741 52.113419 337.63995552 48.53455544 C337.78734507 46.6310557 337.93141367 44.72729969 338.07530212 42.8235321 C338.80634422 33.49787594 339.9044885 24.31184778 341 15 C401.72 15 462.44 15 525 15 C533.97041934 116.15872884 533.97041934 116.15872884 538.04379272 165.02362061 C539.62179375 183.94698909 541.24030921 202.86565251 542.953125 221.77734375 C543.03416348 222.6732082 543.11520195 223.56907265 543.19869614 224.4920845 C543.97856157 233.11027933 544.76234205 241.72808741 545.5589962 250.34474754 C547.02481694 266.22248205 548.37808148 282.06134452 549 298 C555.6 298 562.2 298 569 298 C569.09796875 294.73996094 569.1959375 291.47992187 569.296875 288.12109375 C569.96168047 270.03256256 571.55202892 252.00479196 573.0150795 233.9674263 C573.41326646 229.04361683 573.80562801 224.11934426 574.19799805 219.19506836 C574.27669349 218.20754106 574.35538893 217.22001375 574.43646908 216.20256138 C574.59556771 214.20584304 574.75464154 212.20912273 574.91369057 210.21240044 C575.15207381 207.22213614 575.3910649 204.23192092 575.63017273 201.24171448 C577.07269214 183.18559345 578.45466278 165.1251629 579.8125 147.0625 C579.9606012 145.09435837 579.9606012 145.09435837 580.11169434 143.0864563 C580.65178547 135.91122471 580.65178547 135.91122471 581.18983459 128.73583984 C582.10782986 116.4890744 583.05807369 104.24504209 584 92 C586.31 61.64 588.62 31.28 591 0 C681.42 0 771.84 0 865 0 C863.77990057 9.76079547 862.54513649 19.5090819 861.1875 29.25 C861.01790771 30.47323975 860.84831543 31.69647949 860.67358398 32.95678711 C860.21305748 36.27694409 859.75158269 39.59696653 859.28967285 42.91693115 C858.79387465 46.48226972 858.29936096 50.04778649 857.8046875 53.61328125 C856.85839396 60.43252817 855.91099263 67.25162067 854.96311951 74.07064819 C853.9119796 81.63269899 852.86168452 89.19486702 851.81149292 96.75704956 C851.29103199 100.50470481 850.77051302 104.25235199 850.25 108 C850.04166639 109.49999996 849.83333306 110.99999996 849.625 112.5 C844.20833333 151.5 838.79166667 190.5 833.375 229.5 C833.271875 230.24251007 833.16875 230.98502014 833.0625 231.75003052 C832.85417776 233.24993033 832.64584442 234.74982861 832.4375 236.24972534 C831.91640604 240.00124562 831.39550517 243.75279251 830.875 247.50439453 C829.94080482 254.23634735 829.00531547 260.96810511 828.06246948 267.69885254 C827.54068001 271.42410016 827.02005975 275.14951053 826.5 278.875 C826.34431549 279.98989807 826.34431549 279.98989807 826.18548584 281.12731934 C825.02905398 289.42161891 823.8964636 297.71831214 822.8203125 306.0234375 C822.72255524 306.77763977 822.62479797 307.53184204 822.52407837 308.30889893 C822.32476365 309.84753097 822.12547385 311.38616625 821.9262085 312.92480469 C821.82680969 313.69211914 821.72741089 314.45943359 821.625 315.25 C821.47614349 316.39952148 821.47614349 316.39952148 821.32427979 317.57226562 C819.23404022 333.6601917 816.89189203 349.70951634 814.49853516 365.75488281 C813.05522546 375.47313377 811.69968779 385.19278729 810.5078125 394.9453125 C808.91251189 407.99761566 806.993203 420.99537707 805.05224609 434 C803.41597358 444.98716755 801.8469385 455.97323095 800.5 467 C798.90785822 480.03413606 796.99048446 493.01359158 795.05224609 506 C793.41597358 516.98716755 791.8469385 527.97323095 790.5 539 C788.90785822 552.03413606 786.99048446 565.01359158 785.05224609 578 C783.20134775 590.42832723 781.46166389 602.85788858 779.97644043 615.3359375 C779.86239868 616.28210938 779.74835693 617.22828125 779.63085938 618.203125 C779.53268921 619.03489258 779.43451904 619.86666016 779.33337402 620.72363281 C779 623 779 623 778 627 C671.08 627 564.16 627 454 627 C452.35 606.21 450.7 585.42 449 564 C445.96871943 527.7360679 445.96871943 527.7360679 442.796875 491.484375 C442.70201309 490.4240506 442.60715118 489.3637262 442.50941467 488.27127075 C442.06624446 483.32548831 441.61985635 478.38002994 441.16772461 473.43505859 C441.01154317 471.70931106 440.85537379 469.98356243 440.69921875 468.2578125 C440.62761536 467.48685242 440.55601196 466.71589233 440.48223877 465.92156982 C440.15154551 462.24822703 440 458.69737903 440 455 C433.73 455 427.46 455 421 455 C420.79246094 457.97257812 420.58492187 460.94515625 420.37109375 464.0078125 C418.77733992 486.5852429 417.09024046 509.1526283 415.24609375 531.7109375 C415.16954748 532.64767429 415.09300121 533.58441109 415.01413536 534.54953384 C414.24489232 543.95514691 413.47056123 553.36032717 412.68799305 562.76484108 C412.38971888 566.35478755 412.09357632 569.94490838 411.79770088 573.53505325 C411.66153651 575.18030151 411.52438443 576.82546848 411.38599968 578.47053146 C410.0261353 594.6363208 409.04488074 610.80434849 408 627 C302.73 627 197.46 627 89 627 C87.83081042 621.73864688 86.72962393 616.73798239 85.95019531 611.45019531 C85.769505 610.23471008 85.5888147 609.01922485 85.40264893 607.76690674 C85.21305603 606.46710876 85.02346313 605.16731079 84.828125 603.828125 C84.62135507 602.42418517 84.41437964 601.02027559 84.20721436 599.61639404 C83.77142315 596.65798318 83.33798418 593.69923995 82.90625 590.74023438 C82.37500423 587.1002462 81.8383708 583.46108071 81.29990864 579.82215405 C78.77555243 562.74433238 76.40503765 545.65088688 74.15234375 528.53515625 C71.97176181 511.97736446 69.65601469 495.44279304 67.23828125 478.91796875 C67.07791004 477.82171047 66.91753883 476.72545219 66.75230789 475.59597397 C65.60965343 467.79256765 64.46149175 459.98997529 63.3125 452.1875 C62.15021448 444.29191585 60.99000719 436.39603355 59.8337307 428.49956703 C59.38226219 425.42234345 58.92774771 422.34558154 58.47297668 419.2688446 C57.05523939 409.62494514 55.7253611 399.97823452 54.54321289 390.30249023 C53.0449794 378.06093431 51.29381116 365.86131537 49.50210953 353.65966415 C48.92679799 349.74108077 48.35467526 345.82203821 47.78341675 341.90286255 C46.36347196 332.16537681 44.93811589 322.42868414 43.51257324 312.6920166 C42.11209475 303.12585216 40.71408055 293.55933208 39.3203125 283.9921875 C39.22311385 283.32526666 39.1259152 282.65834581 39.02577114 281.97121525 C36.60549309 265.35957917 34.2533341 248.7441752 32.11671829 232.09363937 C30.35743248 218.40559328 28.40492023 204.74878009 26.40625 191.09375 C26.2478149 190.01108982 26.08937981 188.92842964 25.92614365 187.81296158 C24.78785429 180.04142077 23.64446376 172.27063359 22.5 164.5 C21.19449233 155.635917 19.89117846 146.77151954 18.59375 137.90625 C18.35710664 136.28993274 18.35710664 136.28993274 18.1156826 134.6409626 C15.97802173 120.01426509 13.95588499 105.37762657 12.06536293 90.71705437 C10.59796082 79.34692268 9.01493837 67.9992568 7.32421875 56.66015625 C7.15987272 55.55676722 7.15987272 55.55676722 6.99220657 54.43108749 C6.00105947 47.7841416 5.00094683 41.13855288 3.99780273 34.4934082 C3.43663409 30.77385461 2.880418 27.05358649 2.32712746 23.33285332 C2.02078448 21.2833092 1.70869715 19.23469545 1.39640808 17.18605042 C1.21233902 15.94782028 1.02826996 14.70959015 0.83862305 13.43383789 C0.67605515 12.35598526 0.51348724 11.27813263 0.34599304 10.1676178 C-0.02222787 6.79650056 0 3.39116766 0 0 Z " fill="#F5F5F4" transform="translate(677,360)"/>
<path d="M0 0 C102.96 0 205.92 0 312 0 C312 206.91 312 413.82 312 627 C209.04 627 106.08 627 0 627 C0 420.09 0 213.18 0 0 Z " fill="#F5F5F4" transform="translate(1545,360)"/>
</svg>
