<?xml version="1.0" encoding="UTF-8"?>
<svg version="1.1" xmlns="http://www.w3.org/2000/svg" width="2000" height="181">
<path d="M0 0 C0.88655273 0.14083008 1.77310547 0.28166016 2.68652344 0.42675781 C10.6466517 1.84051437 16.96753618 4.36340578 24.875 7.1875 C24.875 30.9475 24.875 54.7075 24.875 79.1875 C21.10992412 78.43448482 17.95865126 77.55521777 14.375 76.3125 C-0.26643228 71.75775579 -15.87712383 70.7670392 -31.125 70.1875 C-31.125 71.8375 -31.125 73.4875 -31.125 75.1875 C-30.01125 75.28546875 -28.8975 75.3834375 -27.75 75.484375 C-10.86701312 77.08660064 8.41935496 79.43529198 20.875 92.1875 C24.66182732 97.10854613 26.88448452 101.21595356 28.875 107.1875 C29.37 53.7275 29.37 53.7275 29.875 -0.8125 C58.585 -0.8125 87.295 -0.8125 116.875 -0.8125 C127.875 30.1875 127.875 30.1875 127.875 32.1875 C129.855 32.1875 131.835 32.1875 133.875 32.1875 C134.535 29.2175 135.195 26.2475 135.875 23.1875 C138.515 15.2675 141.155 7.3475 143.875 -0.8125 C172.585 -0.8125 201.295 -0.8125 230.875 -0.8125 C231.205 48.0275 231.535 96.8675 231.875 147.1875 C233.525 133.9875 235.175 120.7875 236.875 107.1875 C238.04677304 99.64004319 239.24052721 92.13075529 240.625 84.625 C240.78974823 83.7143277 240.95449646 82.8036554 241.12423706 81.86538696 C243.58410649 68.29894452 246.35653214 54.81376176 249.4375 41.375 C249.60914673 40.6208078 249.78079346 39.8666156 249.9576416 39.08956909 C253.05224132 25.60226581 256.99111521 12.50367644 260.875 -0.8125 C300.145 -0.8125 339.415 -0.8125 379.875 -0.8125 C385.75211628 17.99427208 385.75211628 17.99427208 387.875 26.625 C388.12499756 27.63522217 388.37499512 28.64544434 388.63256836 29.6862793 C391.41194259 41.11494627 393.68573339 52.63360419 395.875 64.1875 C396.08777588 65.29993073 396.30055176 66.41236145 396.51977539 67.5585022 C401.62787344 94.32382054 405.69118129 121.12504099 408.875 148.1875 C409.205 99.0175 409.535 49.8475 409.875 -0.8125 C438.585 -0.8125 467.295 -0.8125 496.875 -0.8125 C496.875 56.2775 496.875 113.3675 496.875 172.1875 C397.53259995 172.1875 397.53259995 172.1875 366.03063965 171.72393799 C361.53220459 171.65916625 357.03367558 171.60153708 352.53515625 171.54296875 C343.98167698 171.43072076 335.42831123 171.31190016 326.875 171.1875 C326.70814781 169.61432893 326.54405964 168.04086457 326.38110352 166.46728516 C326.28942398 165.59109528 326.19774445 164.7149054 326.10328674 163.81216431 C325.77656231 160.0557396 325.7664196 156.32967482 325.8125 152.5625 C325.833125 150.12875 325.85375 147.695 325.875 145.1875 C320.925 145.1875 315.975 145.1875 310.875 145.1875 C310.91401363 150.00274798 310.91401363 150.00274798 310.96508789 154.81787109 C310.98744023 160.40883933 310.44022878 165.53521222 309.875 171.1875 C255.095 171.1875 200.315 171.1875 143.875 171.1875 C143.545 153.3675 143.215 135.5475 142.875 117.1875 C140.235 124.1175 137.595 131.0475 134.875 138.1875 C132.235 138.1875 129.595 138.1875 126.875 138.1875 C126.12186962 136.56394845 125.37271415 134.93855306 124.625 133.3125 C124.20734375 132.40757812 123.7896875 131.50265625 123.359375 130.5703125 C121.42221642 126.15563006 119.66547304 121.6636826 117.875 117.1875 C117.545 135.0075 117.215 152.8275 116.875 171.1875 C88.165 171.1875 59.455 171.1875 29.875 171.1875 C29.545 158.9775 29.215 146.7675 28.875 134.1875 C26.4 140.1275 26.4 140.1275 23.875 146.1875 C12.40687501 162.78230923 -5.28593828 168.87631598 -24.21582031 172.59863281 C-51.58389689 177.3917592 -82.39060357 175.04616212 -109.4375 169.8125 C-110.45779297 169.61567627 -111.47808594 169.41885254 -112.52929688 169.21606445 C-113.50576172 169.01327881 -114.48222656 168.81049316 -115.48828125 168.6015625 C-116.33688721 168.4257666 -117.18549316 168.2499707 -118.05981445 168.06884766 C-122.5278741 166.78412481 -126.80842511 164.91412996 -131.125 163.1875 C-131.125 142.3975 -131.125 121.6075 -131.125 100.1875 C-127.2098641 100.84002265 -124.50986166 101.29485133 -120.98828125 102.62109375 C-115.52868595 104.49950475 -110.00813405 105.38497475 -104.3125 106.25 C-103.2304126 106.41918945 -102.1483252 106.58837891 -101.03344727 106.76269531 C-91.09686369 108.27492664 -81.13772994 109.33725701 -71.125 110.1875 C-71.455 108.5375 -71.785 106.8875 -72.125 105.1875 C-73.383125 105.02894531 -74.64125 104.87039062 -75.9375 104.70703125 C-93.88880424 102.31552135 -112.24793245 99.29785563 -124.4375 84.6015625 C-132.76763361 72.68484359 -133.42906294 56.7184545 -131.5625 42.75 C-128.41928458 27.43805059 -118.81378741 16.62585616 -106.125 8.1875 C-75.41791805 -9.18393493 -33.47946705 -5.53352016 0 0 Z M314.875 83.1875 C314.215 95.7275 313.555 108.2675 312.875 121.1875 C316.505 121.1875 320.135 121.1875 323.875 121.1875 C323.75548835 117.22209569 323.63117829 113.25687174 323.50268555 109.29174805 C323.43878595 107.29027877 323.37853516 105.28869407 323.31835938 103.28710938 C323.0972436 96.53457367 322.75024381 89.8878959 321.875 83.1875 C319.565 83.1875 317.255 83.1875 314.875 83.1875 Z " fill="#F6F6F4" transform="translate(1365.125,3.8125)"/>
<path d="M0 0 C1 1 1 1 1.12025452 3.85365295 C1.11803391 5.13050461 1.11581329 6.40735626 1.11352539 7.72290039 C1.11367142 8.4253035 1.11381744 9.1277066 1.1139679 9.85139465 C1.11326872 12.18351278 1.10547617 14.515552 1.09765625 16.84765625 C1.09579208 18.46048438 1.09436818 20.07331307 1.09336853 21.68614197 C1.08954323 25.93915357 1.07971285 30.19213124 1.06866455 34.44512939 C1.05845069 38.7817743 1.05387096 43.11842467 1.04882812 47.45507812 C1.03809059 55.97006769 1.02101403 64.48502963 1 73 C0.32706909 72.79617203 -0.34586182 72.59234406 -1.03918457 72.38233948 C-1.92924194 72.11380661 -2.81929932 71.84527374 -3.73632812 71.56860352 C-4.61550903 71.30290054 -5.49468994 71.03719757 -6.4005127 70.76344299 C-22.00524727 66.1804911 -37.82246942 64.9318985 -54 64 C-53.67 65.65 -53.34 67.3 -53 69 C-52.17145508 69.09704224 -52.17145508 69.09704224 -51.32617188 69.19604492 C-12.69952394 73.8563644 -12.69952394 73.8563644 -0.46875 88.9140625 C2.67660754 93.38113943 4.67672257 97.7068903 6 103 C6.495 48.55 6.495 48.55 7 -7 C53.2 -7 99.4 -7 147 -7 C147 17.09 147 41.18 147 66 C129.18 66 111.36 66 93 66 C93 68.97 93 71.94 93 75 C110.82 75 128.64 75 147 75 C147 80.61 147 86.22 147 92 C129.18 92 111.36 92 93 92 C93 94.97 93 97.94 93 101 C111.48 101 129.96 101 149 101 C149 122.45 149 143.9 149 166 C102.14 166 55.28 166 7 166 C6.67 152.8 6.34 139.6 6 126 C4.68 129.63 3.36 133.26 2 137 C-5.60799515 150.98421967 -18.24355185 158.1123887 -32.875 163.25 C-67.35050148 172.84030737 -121.49254973 173.25372513 -154 157 C-154 136.21 -154 115.42 -154 94 C-150.01993874 94.79601225 -146.2679453 95.7614968 -142.375 96.875 C-126.56953138 101.19272558 -110.27720704 102.6233208 -94 104 C-94.33 102.35 -94.66 100.7 -95 99 C-95.5576001 98.93530518 -96.1152002 98.87061035 -96.68969727 98.80395508 C-114.24813549 96.70271414 -134.86541769 94.14696207 -147 79.75 C-156.13883225 66.73273651 -156.89865532 49.36905655 -154.3515625 34.1171875 C-150.32221096 19.82504316 -141.53187156 9.25883158 -129.015625 1.6328125 C-93.83708731 -17.41463408 -36.4870458 -14.0031365 0 0 Z " fill="#F6F6F5" transform="translate(580,10)"/>
<path d="M0 0 C25.41 0 50.82 0 77 0 C80.54883731 37.85426461 80.54883731 37.85426461 81.50805664 50.04516602 C81.6938833 52.39315537 81.88699344 54.74048804 82.08007812 57.08789062 C82.7213659 65.06660265 83.20715076 72.98907455 83 81 C84.65 81 86.3 81 88 81 C87.98771866 80.45654434 87.97543732 79.91308868 87.96278381 79.35316467 C87.86666293 71.41009399 88.45215728 63.53415652 89.05859375 55.62109375 C89.16849432 54.15806008 89.27819648 52.6950115 89.38771057 51.23194885 C89.61641594 48.18853629 89.84788674 45.14535 90.08129883 42.10229492 C90.38069443 38.1952849 90.67244077 34.2877455 90.96211147 30.38000393 C91.18619893 27.36958549 91.41455935 24.35950296 91.64421272 21.34950447 C91.75365724 19.90744606 91.86168692 18.46527957 91.96829033 17.02300835 C92.11695829 15.01948356 92.2720558 13.01643894 92.42749023 11.01342773 C92.51409409 9.87332748 92.60069794 8.73322723 92.68992615 7.55857849 C93 5 93 5 94 4 C95.59610982 3.90666295 97.19633428 3.88254628 98.79516602 3.88647461 C99.81614883 3.88655014 100.83713165 3.88662567 101.88905334 3.88670349 C102.9994548 3.89186478 104.10985626 3.89702606 105.25390625 3.90234375 C106.94978127 3.90446617 106.94978127 3.90446617 108.67991638 3.90663147 C112.30747065 3.91224981 115.93496424 3.92480542 119.5625 3.9375 C122.01497307 3.94251264 124.4674471 3.94707595 126.91992188 3.95117188 C132.94663545 3.9622252 138.97331339 3.97898116 145 4 C145.69456131 11.47062942 146.38822874 18.94134146 147.08129883 26.41210938 C147.31677401 28.9492375 147.55244765 31.48634721 147.78833008 34.0234375 C148.12895081 37.68745075 148.46883831 41.35153142 148.80859375 45.015625 C148.96490517 46.69449799 148.96490517 46.69449799 149.12437439 48.4072876 C151.14214037 70.19733186 151.14214037 70.19733186 151.0625 76.25 C151.05347656 77.16265625 151.04445312 78.0753125 151.03515625 79.015625 C151.01775391 79.99789062 151.01775391 79.99789062 151 81 C152.65 81 154.3 81 156 81 C156.07347656 79.41469482 156.07347656 79.41469482 156.1484375 77.79736328 C156.78517804 64.65314015 157.72637174 51.5378076 158.72949219 38.41699219 C159.0022213 34.84591459 159.27086462 31.27454548 159.5390625 27.703125 C159.7133023 25.40362768 159.88777306 23.10414785 160.0625 20.8046875 C160.18129517 19.22480545 160.18129517 19.22480545 160.30249023 17.61300659 C160.37927002 16.61391266 160.4560498 15.61481873 160.53515625 14.58544922 C160.600979 13.72120331 160.66680176 12.8569574 160.73461914 11.96652222 C161.09201738 7.97139684 161.55705035 3.98654686 162 0 C187.08 0 212.16 0 238 0 C236.76792571 11.70470572 235.49142131 23.34106436 233.86108398 34.98657227 C233.65526152 36.47376016 233.44970375 37.9609847 233.24438477 39.44824219 C232.69571655 43.41654184 232.14317343 47.38429209 231.58963275 51.35191464 C231.12601066 54.67786233 230.66441029 58.00408938 230.20280129 61.33031696 C229.11529564 69.16648464 228.02466263 77.00221241 226.93188477 84.83764648 C225.80534452 92.91549785 224.68371523 100.99402041 223.56449455 109.07288891 C222.59972803 116.03581412 221.63222347 122.99835493 220.66243988 129.96058315 C220.08469178 134.10841348 219.50793212 138.2563749 218.93371391 142.40469551 C218.39597011 146.2884917 217.85480689 150.17179601 217.31095123 154.05474091 C217.11178736 155.48085785 216.91383857 156.90714507 216.71717262 158.33360863 C216.44939193 160.27445907 216.17685065 162.21465096 215.90403748 164.15480042 C215.67702479 165.78530759 215.67702479 165.78530759 215.44542599 167.44875431 C215 170 215 170 214 172 C184.63 172 155.26 172 125 172 C123.49794029 168.99588058 123.52201551 165.80361552 123.24609375 162.5 C123.18092056 161.74968506 123.11574738 160.99937012 123.04859924 160.22631836 C122.91131001 158.63266058 122.77610984 157.03882167 122.64282227 155.44482422 C122.44059537 153.03685739 122.22959291 150.62977856 122.01757812 148.22265625 C121.34887177 140.45851839 120.81912812 132.80108298 121 125 C119.35 125 117.7 125 116 125 C116 128.96 116 132.92 116 137 C115.01 148.55 114.02 160.1 113 172 C83.63 172 54.26 172 24 172 C17.98141356 129.74002956 17.98141356 129.74002956 15.46875 112.07226562 C13.73169214 99.85830533 11.99419401 87.64440877 10.25390625 75.4309082 C8.98664046 66.5371054 7.72083287 57.6430965 6.45679092 48.74883491 C5.78716966 44.03750307 5.11680847 39.32627915 4.44470215 34.61530113 C3.81254563 30.18417774 3.18233435 25.75278212 2.55363464 21.32116699 C2.32216 19.69202728 2.08996577 18.06298962 1.85700989 16.43406105 C1.5397942 14.21519456 1.22513665 11.99598005 0.91113281 9.7766571 C0.73414856 8.53315837 0.55716431 7.28965963 0.37481689 6.00847912 C0 3 0 3 0 0 Z " fill="#F5F5F4" transform="translate(20,3)"/>
<path d="M0 0 C28.71 0 57.42 0 87 0 C90.63 10.56 94.26 21.12 98 32 C99.65 32 101.3 32 103 32 C106.63 21.44 110.26 10.88 114 0 C142.71 0 171.42 0 201 0 C201 56.76 201 113.52 201 172 C172.29 172 143.58 172 114 172 C113.67 153.85 113.34 135.7 113 117 C110.36 123.93 107.72 130.86 105 138 C104 139 104 139 100.4375 139.0625 C99.303125 139.041875 98.16875 139.02125 97 139 C93.00708692 131.47489457 90.22187546 124.05468866 87 116 C86.67 134.48 86.34 152.96 86 172 C57.62 172 29.24 172 0 172 C0 115.24 0 58.48 0 0 Z " fill="#F5F5F5" transform="translate(878,3)"/>
<path d="M0 0 C39.6 0 79.2 0 120 0 C130.44266233 38.28976186 130.44266233 38.28976186 133.125 52.5 C133.44859577 54.16999533 133.77258371 55.8399147 134.09692383 57.50976562 C135.09102739 62.66837689 136.05033613 67.83304584 137 73 C137.15639954 73.8470752 137.31279907 74.69415039 137.47393799 75.56689453 C141.1365687 95.45340167 144.34120519 115.37458393 146.875 135.4375 C146.97863861 136.24832031 147.08227722 137.05914062 147.1890564 137.89453125 C147.48574456 140.23996618 147.77221983 142.58640732 148.0546875 144.93359375 C148.13663864 145.58537094 148.21858978 146.23714813 148.30302429 146.90867615 C149.27408504 155.26349739 149.53138995 163.56501905 150 172 C122.28 172 94.56 172 66 172 C65.505 159.13 65.505 159.13 65 146 C60.38 146 55.76 146 51 146 C50.93941406 147.70929688 50.87882812 149.41859375 50.81640625 151.1796875 C50.73201121 153.41146744 50.64736269 155.6432378 50.5625 157.875 C50.52318359 159.00292969 50.48386719 160.13085938 50.44335938 161.29296875 C50.40146484 162.36933594 50.35957031 163.44570312 50.31640625 164.5546875 C50.27974854 165.54968262 50.24309082 166.54467773 50.20532227 167.56982422 C50 170 50 170 49 172 C22.93 172 -3.14 172 -30 172 C-29.3745021 160.11553994 -28.69806769 148.41694897 -27.3125 136.625 C-27.18420303 135.52115967 -27.18420303 135.52115967 -27.05331421 134.39501953 C-24.104418 109.24571554 -19.84412166 84.36220584 -14.75 59.5625 C-14.58770905 58.75868896 -14.42541809 57.95487793 -14.25820923 57.12670898 C-10.3403598 37.85420311 -5.01329856 19.05053453 0 0 Z M55 84 C53.35740755 87.28518489 53.61015101 90.94462818 53.4375 94.5625 C53.3950415 95.40208252 53.35258301 96.24166504 53.30883789 97.10668945 C52.92212908 105.40653439 52.90427804 113.69346127 53 122 C56.3 122 59.6 122 63 122 C63.14978835 109.30127632 62.70199948 96.67893206 62 84 C59.69 84 57.38 84 55 84 Z " fill="#F5F5F5" transform="translate(275,3)"/>
<path d="M0 0 C46.2 0 92.4 0 140 0 C140 24.09 140 48.18 140 73 C122.51 73 105.02 73 87 73 C87 75.97 87 78.94 87 82 C104.49 82 121.98 82 140 82 C140 87.61 140 93.22 140 99 C122.51 99 105.02 99 87 99 C87 101.97 87 104.94 87 108 C105.48 108 123.96 108 143 108 C143.04010881 123.93211037 143.04010881 123.93211037 143.04882812 130.70117188 C143.05481579 135.3277297 143.06191404 139.95426782 143.07543945 144.58081055 C143.086271 148.30903401 143.0922774 152.03723634 143.09487724 155.76547432 C143.09673101 157.19089656 143.10035071 158.61631759 143.10573006 160.04173088 C143.11294393 162.03163408 143.11340808 164.02155834 143.11352539 166.01147461 C143.115746 167.14620712 143.11796661 168.28093964 143.12025452 169.45005798 C143 172 143 172 142 173 C140.16505514 173.09646028 138.32635413 173.12187344 136.48887634 173.12025452 C134.69834918 173.12232076 134.69834918 173.12232076 132.87164974 173.12442875 C131.53153905 173.12088149 130.19142859 173.11724359 128.85131836 173.11352539 C127.42944879 173.11321928 126.00757907 173.11335217 124.58570957 173.11389065 C120.76522881 173.11411715 116.94477913 173.10830578 113.12430573 173.10128021 C109.54417316 173.09560086 105.96404829 173.09531794 102.38391113 173.09460449 C91.90176994 173.08934943 81.41963458 173.07538838 70.9375 173.0625 C47.528125 173.041875 24.11875 173.02125 0 173 C0 115.91 0 58.82 0 0 Z " fill="#F6F6F5" transform="translate(732,3)"/>
<path d="M0 0 C28.71 0 57.42 0 87 0 C87 35.64 87 71.28 87 108 C95.25 108 103.5 108 112 108 C112 129.45 112 150.9 112 173 C84.33829116 173.04010881 84.33829116 173.04010881 72.59179688 173.04882812 C64.5611098 173.05481736 56.53043398 173.06177184 48.49975586 173.07543945 C42.02886264 173.08626565 35.55798158 173.09227626 29.08708 173.09487724 C26.61221055 173.09673198 24.1373418 173.1003535 21.66247749 173.10573006 C18.20929627 173.11293693 14.75616599 173.11399109 11.30297852 173.11352539 C10.26864182 173.11712067 9.23430511 173.12071594 8.16862488 173.12442017 C7.23327911 173.1230455 6.29793335 173.12167084 5.33424377 173.12025452 C4.5166134 173.12117631 3.69898302 173.1220981 2.85657597 173.12304783 C1 173 1 173 0 172 C-0.09701605 169.7850814 -0.12186691 167.56700203 -0.12025452 165.34996033 C-0.12110894 164.6467349 -0.12196337 163.94350947 -0.12284368 163.21897417 C-0.12450053 160.84509484 -0.1189738 158.47128502 -0.11352539 156.09741211 C-0.11324354 154.40270489 -0.11340122 152.70799755 -0.1139679 151.01329041 C-0.11425594 146.39778374 -0.10835809 141.78230283 -0.10139394 137.16680217 C-0.09516156 132.34879736 -0.09455669 127.53079203 -0.09336853 122.71278381 C-0.09025487 113.58257502 -0.08204102 104.45237814 -0.07201904 95.32217461 C-0.05877404 82.9892073 -0.05335828 70.65623675 -0.04751682 58.32326412 C-0.03810115 38.88216715 -0.01818246 19.44109532 0 0 Z " fill="#F6F6F5" transform="translate(1865,3)"/>
<path d="M0 0 C28.71 0 57.42 0 87 0 C87 57.09 87 114.18 87 173 C58.62 173 30.24 173 1 173 C0 172 0 172 -0.12304783 169.19076443 C-0.12212604 167.92329907 -0.12120424 166.65583372 -0.12025452 165.34996033 C-0.12110894 164.6467349 -0.12196337 163.94350947 -0.12284368 163.21897417 C-0.12450053 160.84509484 -0.1189738 158.47128502 -0.11352539 156.09741211 C-0.11324354 154.40270489 -0.11340122 152.70799755 -0.1139679 151.01329041 C-0.11425594 146.39778374 -0.10835809 141.78230283 -0.10139394 137.16680217 C-0.09516156 132.34879736 -0.09455669 127.53079203 -0.09336853 122.71278381 C-0.09025487 113.58257502 -0.08204102 104.45237814 -0.07201904 95.32217461 C-0.05877404 82.9892073 -0.05335828 70.65623675 -0.04751682 58.32326412 C-0.03810115 38.88216715 -0.01818246 19.44109532 0 0 Z " fill="#F6F6F5" transform="translate(1143,3)"/>
</svg>
